<svg width="948" height="784" viewBox="0 0 948 784" fill="none" xmlns="http://www.w3.org/2000/svg">
<g clip-path="url(#clip0_6150_150876)">
<path fill-rule="evenodd" clip-rule="evenodd" d="M98.125 0C43.9321 0 0 43.9321 0 98.125V686.875C0 741.068 43.9321 785 98.125 785H599.653V545.139C599.653 484.924 648.466 436.111 708.681 436.111H948.542V98.125C948.542 43.9321 904.61 0 850.417 0H98.125Z" fill="url(#paint0_radial_6150_150876)"/>
<path fill-rule="evenodd" clip-rule="evenodd" d="M98.125 0H850.417C904.61 0 948.542 43.9321 948.542 98.125V436.111H746.84V193.524C746.84 151.374 712.671 117.205 670.521 117.205H0V98.125C0 43.9321 43.9321 0 98.125 0Z" fill="url(#paint1_linear_6150_150876)"/>
<path fill-rule="evenodd" clip-rule="evenodd" d="M627.251 473.112C610.286 492.333 599.993 517.577 599.993 545.231V785.092H431V739.439C431 716.114 439.31 693.55 454.439 675.795L627.25 473L627.251 473.112Z" fill="#D5D5D5"/>
<path d="M695.052 660.432H729.556C730.985 666.435 734.47 671.748 739.407 675.451C744.344 679.154 750.421 681.012 756.585 680.703C772.176 680.703 782.445 672.096 782.445 659.525C782.445 646.954 771.724 639.933 750.508 639.933H736.766V611.544H748.658C769.157 611.544 777.537 603.994 777.537 592.668C777.537 581.343 768.439 573.566 755.868 573.566C750.232 573.231 744.689 575.113 740.422 578.809C736.155 582.505 733.501 587.723 733.028 593.349H699.959C701.129 573.567 716.72 545.141 755.868 545.141C787.314 545.141 808.984 563.071 808.984 588.213C809.021 596.296 806.478 604.181 801.726 610.72C796.973 617.258 790.258 622.11 782.558 624.569V625.02C791.537 626.654 799.63 631.462 805.361 638.565C811.092 645.668 814.079 654.593 813.778 663.715C813.778 690.971 788.824 709.016 756.472 709.016C722.081 709.129 697.619 689.576 695.052 660.432Z" fill="#686868"/>
<path d="M874.043 547.703H899.185V706.559H866.794V584.737L835.574 605.917V573.79L874.043 547.703Z" fill="#686868"/>
</g>
<defs>
<radialGradient id="paint0_radial_6150_150876" cx="0" cy="0" r="1" gradientUnits="userSpaceOnUse" gradientTransform="translate(645.995 -400.692) rotate(110.422) scale(1355.36 1806.17)">
<stop offset="0.5561" stop-color="#686868"/>
<stop offset="0.9944" stop-color="#A1A1A1"/>
</radialGradient>
<linearGradient id="paint1_linear_6150_150876" x1="796.86" y1="401.182" x2="405.947" y2="-319.916" gradientUnits="userSpaceOnUse">
<stop stop-color="#E1E1E1"/>
<stop offset="0.3075" stop-color="#BBBBBB"/>
<stop offset="1" stop-color="#686868"/>
</linearGradient>
<clipPath id="clip0_6150_150876">
<rect width="948" height="784" fill="white"/>
</clipPath>
</defs>
</svg>
